<svg xmlns="http://www.w3.org/2000/svg" version="1.1" xmlns:xlink="http://www.w3.org/1999/xlink" xmlns:svgjs="http://svgjs.com/svgjs" width="1920" height="1080" preserveAspectRatio="none" viewBox="0 0 1920 1080"><g mask="url(&quot;#SvgjsMask1646&quot;)" fill="none"><rect width="1920" height="1080" x="0" y="0" fill="#0e2a47"></rect><path d="M1685.505,503.66C1789.017,503.285,1843.779,390.622,1889.187,297.6C1927.608,218.892,1943.651,131.83,1905.499,52.991C1861.627,-37.668,1786.222,-123.306,1685.505,-123.294C1584.802,-123.282,1509.79,-37.447,1465.603,53.044C1426.973,132.153,1440.644,219.965,1479.254,299.084C1524.771,392.356,1581.72,504.036,1685.505,503.66" fill="rgba(95, 144, 215, 0.4)" class="triangle-float2"></path><path d="M1623.9360708791644 645.7840020603028L1800.263449892077 661.2106487931716 1815.6900966249457 484.88326978025884 1639.362717612033 469.45662304739017z" fill="rgba(95, 144, 215, 0.4)" class="triangle-float2"></path><path d="M1365.6442734068078 166.39856076119554L1301.3278468579838 7.2098189514865965 1142.1391050482748 71.52624550031058 1206.4555315970988 230.71498731001952z" fill="rgba(95, 144, 215, 0.4)" class="triangle-float1"></path><path d="M1580.3761796957017 493.0373060098424L1770.647427889709 519.7781860508941 1797.3883079307607 329.5069378568867 1607.1170597367534 302.766057815835z" fill="rgba(95, 144, 215, 0.4)" class="triangle-float1"></path><path d="M1302.9237771165883 868.9386498835037L1390.1399652659861 1084.8062905771603 1606.007605959643 997.5901024277624 1518.7914178102449 781.7224617341058z" fill="rgba(95, 144, 215, 0.4)" class="triangle-float2"></path><path d="M-319.3 49.17 a328.05 328.05 0 1 0 656.1 0 a328.05 328.05 0 1 0 -656.1 0z" fill="rgba(95, 144, 215, 0.4)" class="triangle-float2"></path><path d="M37.26 748.28 a326.6 326.6 0 1 0 653.2 0 a326.6 326.6 0 1 0 -653.2 0z" fill="rgba(95, 144, 215, 0.4)" class="triangle-float2"></path><path d="M1826.896395709802 333.1184070448836L1924.405022279637 114.1104459961399 1705.3970612308933 16.601819426304758 1607.8884346610582 235.60978047504847z" fill="rgba(95, 144, 215, 0.4)" class="triangle-float2"></path><path d="M352.92 543.96 a306.2 306.2 0 1 0 612.4 0 a306.2 306.2 0 1 0 -612.4 0z" fill="rgba(95, 144, 215, 0.4)" class="triangle-float3"></path><path d="M1404.647,32.941C1433.461,32.861,1465.952,30.396,1480.496,5.522C1495.125,-19.499,1481.682,-49.28,1467.5,-74.557C1452.887,-100.603,1434.511,-129.385,1404.647,-129.669C1374.493,-129.956,1354.518,-102.03,1339.69,-75.773C1325.189,-50.095,1312.936,-19.368,1328.062,5.947C1342.942,30.851,1375.636,33.022,1404.647,32.941" fill="rgba(95, 144, 215, 0.4)" class="triangle-float2"></path><path d="M186.25746635328156 406.92989414815156L170.50763797705602 181.6968549392597-38.975572855610295 422.6797225243771z" fill="rgba(95, 144, 215, 0.4)" class="triangle-float3"></path><path d="M1312.538,1116.109C1384.39,1119.77,1455.359,1086.792,1492.092,1024.931C1529.548,961.853,1524.836,883.404,1488.595,819.62C1451.89,755.018,1386.642,703.509,1312.538,708.912C1244.487,713.874,1206.615,781.455,1175.966,842.416C1149.281,895.492,1135.58,954.961,1162.105,1008.118C1191.645,1067.316,1246.465,1112.743,1312.538,1116.109" fill="rgba(95, 144, 215, 0.4)" class="triangle-float2"></path><path d="M973.1574591467099 438.0180829305468L904.8101280729545 532.0901137329213 1080.091839813394 587.5750949423671z" fill="rgba(95, 144, 215, 0.4)" class="triangle-float3"></path><path d="M432.9332967362959 425.1296672457506L472.6179950052733 709.4669076867311 673.0472879639095 558.4326022185114z" fill="rgba(95, 144, 215, 0.4)" class="triangle-float2"></path><path d="M253.90863457007353 167.70986660960617L253.9086345700735-71.32794758978653 14.870820370680804-71.3279475897865 14.870820370680832 167.7098666096062z" fill="rgba(95, 144, 215, 0.4)" class="triangle-float1"></path><path d="M664.6614933678051-71.2036187208389L453.9341265680266-67.52535885119647 564.8151997723795 246.72656141365005z" fill="rgba(95, 144, 215, 0.4)" class="triangle-float1"></path><path d="M140.78 701.21 a310.37 310.37 0 1 0 620.74 0 a310.37 310.37 0 1 0 -620.74 0z" fill="rgba(95, 144, 215, 0.4)" class="triangle-float1"></path><path d="M305.76 369.26 a214.69 214.69 0 1 0 429.38 0 a214.69 214.69 0 1 0 -429.38 0z" fill="rgba(95, 144, 215, 0.4)" class="triangle-float1"></path><path d="M-158.82 775.37 a302.12 302.12 0 1 0 604.24 0 a302.12 302.12 0 1 0 -604.24 0z" fill="rgba(95, 144, 215, 0.4)" class="triangle-float3"></path><path d="M1554.3200664126675 923.5662224117773L1808.0888117872987 764.9939109546884 1649.5165003302097 511.22516558005736 1395.7477549555786 669.7974770371462z" fill="rgba(95, 144, 215, 0.4)" class="triangle-float3"></path></g><defs><mask id="SvgjsMask1646"><rect width="1920" height="1080" fill="#ffffff"></rect></mask><style>
            @keyframes float1 {
                0%{transform: translate(0, 0)}
                50%{transform: translate(-10px, 0)}
                100%{transform: translate(0, 0)}
            }

            .triangle-float1 {
                animation: float1 5s infinite;
            }

            @keyframes float2 {
                0%{transform: translate(0, 0)}
                50%{transform: translate(-5px, -5px)}
                100%{transform: translate(0, 0)}
            }

            .triangle-float2 {
                animation: float2 4s infinite;
            }

            @keyframes float3 {
                0%{transform: translate(0, 0)}
                50%{transform: translate(0, -10px)}
                100%{transform: translate(0, 0)}
            }

            .triangle-float3 {
                animation: float3 6s infinite;
            }
        </style></defs></svg>